<svg width="134" height="225" viewBox="0 0 134 225" fill="none" xmlns="http://www.w3.org/2000/svg">
<path d="M51.8534 112L127.373 36.48C131.347 32.4829 133.577 27.0759 133.577 21.44C133.577 15.804 131.347 10.397 127.373 6.39996C125.39 4.40042 123.031 2.81334 120.431 1.73028C117.831 0.64721 115.043 0.0895996 112.227 0.0895996C109.411 0.0895996 106.622 0.64721 104.022 1.73028C101.423 2.81334 99.0633 4.40042 97.0801 6.39996L6.62677 96.8533C4.62723 98.8365 3.04016 101.196 1.95709 103.796C0.874027 106.395 0.316406 109.184 0.316406 112C0.316406 114.816 0.874027 117.605 1.95709 120.204C3.04016 122.804 4.62723 125.163 6.62677 127.147L97.0801 218.667C99.0735 220.644 101.438 222.208 104.037 223.27C106.636 224.331 109.419 224.87 112.227 224.853C115.034 224.87 117.818 224.331 120.417 223.27C123.016 222.208 125.38 220.644 127.373 218.667C131.347 214.67 133.577 209.263 133.577 203.627C133.577 197.991 131.347 192.584 127.373 188.587L51.8534 112Z" fill="#EAB512"/>
</svg>
