<svg width="134" height="224" viewBox="0 0 134 224" fill="none" xmlns="http://www.w3.org/2000/svg">
<path d="M127.373 96.8533L36.92 6.39996C34.9368 4.40042 32.5773 2.81334 29.9776 1.73028C27.378 0.64721 24.5896 0.0895996 21.7733 0.0895996C18.9571 0.0895996 16.1687 0.64721 13.569 1.73028C10.9694 2.81334 8.60988 4.40042 6.62667 6.39996C2.65331 10.397 0.423096 15.804 0.423096 21.44C0.423096 27.0759 2.65331 32.4829 6.62667 36.48L82.1467 112L6.62667 187.52C2.65331 191.517 0.423096 196.924 0.423096 202.56C0.423096 208.196 2.65331 213.603 6.62667 217.6C8.62006 219.577 10.9841 221.141 13.5833 222.203C16.1825 223.265 18.9657 223.803 21.7733 223.787C24.5809 223.803 27.3641 223.265 29.9633 222.203C32.5625 221.141 34.9266 219.577 36.92 217.6L127.373 127.147C129.373 125.163 130.96 122.804 132.043 120.204C133.126 117.605 133.684 114.816 133.684 112C133.684 109.184 133.126 106.395 132.043 103.796C130.96 101.196 129.373 98.8365 127.373 96.8533Z" fill="#EAB512"/>
</svg>
