<svg width="427" height="299" viewBox="0 0 427 299" fill="none" xmlns="http://www.w3.org/2000/svg">
<path d="M21.3333 42.6667H405.333C410.991 42.6667 416.417 40.419 420.418 36.4183C424.419 32.4175 426.667 26.9913 426.667 21.3333C426.667 15.6754 424.419 10.2492 420.418 6.24839C416.417 2.24762 410.991 0 405.333 0H21.3333C15.6754 0 10.2492 2.24762 6.24839 6.24839C2.24761 10.2492 0 15.6754 0 21.3333C0 26.9913 2.24761 32.4175 6.24839 36.4183C10.2492 40.419 15.6754 42.6667 21.3333 42.6667ZM405.333 128H21.3333C15.6754 128 10.2492 130.248 6.24839 134.248C2.24761 138.249 0 143.675 0 149.333C0 154.991 2.24761 160.417 6.24839 164.418C10.2492 168.419 15.6754 170.667 21.3333 170.667H405.333C410.991 170.667 416.417 168.419 420.418 164.418C424.419 160.417 426.667 154.991 426.667 149.333C426.667 143.675 424.419 138.249 420.418 134.248C416.417 130.248 410.991 128 405.333 128ZM405.333 256H21.3333C15.6754 256 10.2492 258.248 6.24839 262.248C2.24761 266.249 0 271.675 0 277.333C0 282.991 2.24761 288.418 6.24839 292.418C10.2492 296.419 15.6754 298.667 21.3333 298.667H405.333C410.991 298.667 416.417 296.419 420.418 292.418C424.419 288.418 426.667 282.991 426.667 277.333C426.667 271.675 424.419 266.249 420.418 262.248C416.417 258.248 410.991 256 405.333 256Z" fill="#EAB512"/>
</svg>
