<svg width="57" height="14" viewBox="0 0 57 14" fill="none" xmlns="http://www.w3.org/2000/svg">
<path d="M14.2482 6.84175C14.2696 7.77393 14.1013 8.70094 13.7531 9.56833C13.4049 10.4357 12.8838 11.226 12.2204 11.8929C11.557 12.5597 10.7647 13.0896 9.89002 13.4514C9.01532 13.8133 8.07586 13.9998 7.12678 14C6.17771 14.0002 5.23815 13.8142 4.36327 13.4528C3.48839 13.0913 2.69582 12.5618 2.0321 11.8954C1.36838 11.2289 0.846877 10.4388 0.498216 9.57159C0.149554 8.70436 -0.0192405 7.77744 0.00174154 6.84525C0.0429082 5.01628 0.811228 3.27582 2.14223 1.99645C3.47323 0.717076 5.26114 0.000457686 7.12322 2.19159e-07C8.9853 -0.000457248 10.7736 0.715283 12.1052 1.994C13.4369 3.27272 14.2061 5.0128 14.2482 6.84175ZM35.6232 6.84175C35.6446 7.77393 35.4763 8.70094 35.1281 9.56833C34.7799 10.4357 34.2588 11.226 33.5954 11.8929C32.932 12.5597 32.1397 13.0896 31.265 13.4514C30.3903 13.8133 29.4509 13.9998 28.5018 14C27.5527 14.0002 26.6131 13.8142 25.7383 13.4528C24.8634 13.0913 24.0708 12.5618 23.4071 11.8954C22.7434 11.2289 22.2219 10.4388 21.8732 9.57159C21.5246 8.70436 21.3558 7.77744 21.3767 6.84525C21.4179 5.01628 22.1862 3.27582 23.5172 1.99645C24.8482 0.717076 26.6361 0.000457686 28.4982 2.19159e-07C30.3603 -0.000457248 32.1486 0.715283 33.4802 1.994C34.8119 3.27272 35.5811 5.0128 35.6232 6.84175ZM56.9982 6.84175C57.0196 7.77393 56.8513 8.70094 56.5031 9.56833C56.1549 10.4357 55.6338 11.226 54.9704 11.8929C54.307 12.5597 53.5147 13.0896 52.64 13.4514C51.7653 13.8133 50.8259 13.9998 49.8768 14C48.9277 14.0002 47.9881 13.8142 47.1133 13.4528C46.2384 13.0913 45.4458 12.5618 44.7821 11.8954C44.1184 11.2289 43.5969 10.4388 43.2482 9.57159C42.8996 8.70436 42.7308 7.77744 42.7517 6.84525C42.7929 5.01628 43.5612 3.27582 44.8922 1.99645C46.2232 0.717076 48.0111 0.000457686 49.8732 2.19159e-07C51.7353 -0.000457248 53.5236 0.715283 54.8552 1.994C56.1869 3.27272 56.9561 5.0128 56.9982 6.84175Z" fill="black"/>
</svg>
